PathFileType	4	(X/Y/Z)	ROM_Ellenbogenflex_R 1.trc
DataRate	CameraRate	NumFrames	NumMarkers	Units	OrigDataRate	OrigDataStartFrame	OrigNumFrames
150	150	8	17	mm	150	1024	2047
Frame#	Time	ST1			ST2			ST3			RACR1			RACR2			RACR3			RUA1			RUA2			RUA3			RUA4			RLA1			RLA2			RLA3			RLA4			RH1			RH2			RH3		
		X1	Y1	Z1	X2	Y2	Z2	X3	Y3	Z3	X4	Y4	Z4	X5	Y5	Z5	X6	Y6	Z6	X7	Y7	Z7	X8	Y8	Z8	X9	Y9	Z9	X10	Y10	Z10	X11	Y11	Z11	X12	Y12	Z12	X13	Y13	Z13	X14	Y14	Z14	X15	Y15	Z15	X16	Y16	Z16	X17	Y17	Z17
	
1024	6.820000	320.041321	1167.632446	-13.730787	338.868225	1114.161499	20.290482	319.455353	1166.882568	42.109013	267.339294	1274.100830	246.755295	226.234512	1173.704712	268.501770	189.324203	1232.787109	178.438141	277.254578	1093.958252	237.153320	272.313049	1032.822510	244.089066	220.672836	1043.528076	272.011505	221.825577	1104.110840	255.782120	231.605682	721.110168	309.368011	293.253784	647.810730	274.850922	313.960968	684.256836	397.885529	219.987854	731.755188	370.043854	207.125900	618.117371	337.389038	204.926392	580.634949	372.439667	228.182999	630.405945	388.262726
1025	6.826667	319.987793	1167.571045	-13.674303	338.784149	1114.168335	20.392979	319.392517	1166.871582	42.200695	266.559967	1274.247559	246.709061	225.293335	1173.767456	268.490845	188.828262	1232.762085	178.173676	276.597748	1094.186890	237.570633	271.859528	1033.157349	244.621582	219.835480	1043.473389	272.090363	220.950302	1103.921753	255.758636	233.736404	721.171570	309.618073	297.058746	649.048706	275.907074	315.350159	685.366516	399.218597	221.177383	731.500854	370.169373	210.497375	617.837463	336.999268	209.069717	580.012268	371.546295	230.680008	630.299377	388.230560
1026	6.833333	319.937866	1167.495239	-13.635353	338.692902	1114.169067	20.498747	319.324585	1166.859497	42.289883	265.739258	1274.383057	246.667114	224.341629	1173.836060	268.482056	188.323669	1232.716797	177.888214	275.904724	1094.416626	238.015076	271.366425	1033.489868	245.202988	218.918976	1043.381836	272.130859	220.030014	1103.688721	255.717422	236.054443	721.260376	309.885681	301.173431	650.374756	277.044739	316.745850	686.567505	400.694458	222.394455	731.202087	370.267487	214.143600	617.573669	336.600891	213.549759	579.400940	370.666077	233.335510	630.207092	388.204437
1027	6.840000	319.888977	1167.413696	-13.603662	338.594330	1114.159668	20.610189	319.251495	1166.846558	42.375320	264.892059	1274.502808	246.629028	223.401733	1173.930176	268.482697	187.812012	1232.658447	177.588486	275.174591	1094.646851	238.485046	270.833160	1033.811768	245.840530	217.918182	1043.242920	272.128784	219.067841	1103.403687	255.654739	238.550934	721.391846	310.167999	305.535614	651.777161	278.262787	318.140747	687.841064	402.288177	223.617767	730.832642	370.309265	218.064941	617.334534	336.192047	218.378204	578.820496	369.819397	236.147278	630.125732	388.187347
1028	6.846667	319.837372	1167.339844	-13.565725	338.489838	1114.136963	20.727467	319.175598	1166.833740	42.458076	264.030853	1274.603516	246.594452	222.478256	1174.050293	268.495178	187.295059	1232.593384	177.282684	274.407806	1094.872803	238.974304	270.259674	1034.117676	246.534027	216.834549	1043.047729	272.080933	218.069702	1103.062500	255.566452	241.189011	721.570251	310.475769	310.065338	653.239929	279.555725	319.541748	689.169495	403.965454	224.835815	730.380188	370.269073	222.267273	617.134338	335.779358	223.551651	578.296204	369.016144	239.123657	630.049011	388.177124
1029	6.853333	319.780640	1167.283203	-13.513330	338.381195	1114.101074	20.848902	319.098877	1166.822388	42.541271	263.164246	1274.683228	246.560440	221.565170	1174.184692	268.519836	186.774048	1232.522827	176.977402	273.604767	1095.088013	239.475174	269.647461	1034.404053	247.275757	215.675720	1042.790649	271.984894	217.042252	1102.666626	255.449692	243.901840	721.781860	310.837860	314.697632	654.761108	280.914734	320.972229	690.540405	405.684937	226.063736	729.852905	370.143219	226.767838	616.998840	335.375061	229.051895	577.854126	368.255432	242.279190	629.967529	388.165375
1030	6.860000	319.718445	1167.244873	-13.445806	338.269745	1114.056030	20.972559	319.020905	1166.812500	42.627705	262.296509	1274.740112	246.523148	220.656128	1174.318848	268.554138	186.248566	1232.441528	176.676758	272.767029	1095.286865	239.981949	268.997406	1034.669678	248.053223	214.454498	1042.469360	271.839294	215.992874	1102.222900	255.302979	246.637146	722.009033	311.275360	319.396271	656.364319	282.333191	322.463837	691.946899	407.404236	227.352814	729.281555	369.965302	231.593475	616.966797	334.994537	234.852615	577.517456	367.530945	245.626587	629.875061	388.142426
1031	6.866667	319.651855	1167.221069	-13.367161	338.156616	1114.008301	21.096367	318.938873	1166.802856	42.718533	261.426544	1274.772217	246.482300	219.752792	1174.440430	268.592285	185.716171	1232.340332	176.383026	271.900696	1095.465820	240.489441	268.307068	1034.917969	248.849030	213.187790	1042.085693	271.643921	214.930771	1101.738647	255.126144	249.423981	722.245911	311.763062	324.145996	658.079407	283.795471	324.043030	693.384155	409.087799	228.771439	728.710571	369.787994	236.755753	617.085693	334.657990	240.925354	577.307007	366.838226	249.167984	629.778748	388.107452
